<?xml version="1.0" encoding="utf-8"?>
<!-- Generator: Adobe Illustrator 16.0.0, SVG Export Plug-In . SVG Version: 6.00 Build 0)  -->
<!DOCTYPE svg PUBLIC "-//W3C//DTD SVG 1.1//EN" "http://www.w3.org/Graphics/SVG/1.1/DTD/svg11.dtd">
<svg version="1.1" id="Layer_1" xmlns="http://www.w3.org/2000/svg" xmlns:xlink="http://www.w3.org/1999/xlink" x="0px" y="0px"
	 width="20px" height="180px" viewBox="0 0 20 180" style="enable-background:new 0 0 20 180;" xml:space="preserve">
<style type="text/css">
<![CDATA[
	.st0{fill:#BC843A;}
	.st1{fill:#BC853A;}
]]>
</style>
<path class="st1" d="M16.6,11.7l2.3,6.1c0.4,1-0.1,1.6-1.2,1.2l-6.1-2.3"/>
<path class="st1" d="M10,1c-5,0-9,4-9,9s4,9,9,9c5,0,9-4,9-9S15,1,10,1z M5,11c-0.6,0-1-0.4-1-1s0.4-1,1-1s1,0.4,1,1S5.6,11,5,11z
	 M10,11c-0.6,0-1-0.4-1-1s0.4-1,1-1s1,0.4,1,1S10.6,11,10,11z M15,11c-0.6,0-1-0.4-1-1s0.4-1,1-1s1,0.4,1,1S15.6,11,15,11z"/>
<path class="st1" d="M10,21c-3.9,0-7,3.1-7,7c0,1.4,0.4,2.8,1.2,3.9l4.2,6.2c0.4,0.5,1,0.9,1.7,0.9s1.3-0.4,1.7-0.9l4.2-6.2
	c0.7-1.1,1.2-2.4,1.2-3.9C17,24.1,13.9,21,10,21z M13.3,30.2C12.6,31.3,11.4,32,10,32s-2.6-0.7-3.3-1.8C6.2,29.6,6,28.8,6,28
	c0-2.2,1.8-4,4-4s4,1.8,4,4C14,28.8,13.8,29.6,13.3,30.2z"/>
<path class="st1" d="M12,28c0,0.4-0.1,0.8-0.3,1.1c-0.4,0.5-1,0.9-1.7,0.9s-1.3-0.4-1.7-0.9C8.1,28.8,8,28.4,8,28c0-1.1,0.9-2,2-2
	S12,26.9,12,28z"/>
<path class="st1" d="M10,41c-5,0-9,4-9,9s4,9,9,9s9-4,9-9S15,41,10,41z M15,51h-5c-0.6,0-1-0.4-1-1v-5c0-0.6,0.4-1,1-1s1,0.4,1,1v4
	h4c0.6,0,1,0.4,1,1C16,50.6,15.6,51,15,51z"/>
<path class="st1" d="M10,61c-5,0-9,4-9,9s4,9,9,9s9-4,9-9S15,61,10,61z M12,67c0-0.6,0.4-1,1-1s1,0.4,1,1v1c0,0.6-0.4,1-1,1
	s-1-0.4-1-1V67z M6,67c0-0.6,0.4-1,1-1s1,0.4,1,1v1c0,0.6-0.4,1-1,1s-1-0.4-1-1V67z M10,76c-2.8,0-5-2.2-5-5h10
	C15,73.8,12.8,76,10,76z"/>
<path class="st1" d="M10,81c-5,0-9,4-9,9s4,9,9,9s9-4,9-9S15,81,10,81z M12.1,92.1c-2.5,2.5-6,2.8-6,2.8c-0.6,0-1-0.4-1-1
	c0,0,0.3-3.5,2.8-6c2.5-2.5,6-2.8,6-2.8c0.6,0,1,0.4,1,1C14.9,86.1,14.6,89.6,12.1,92.1z"/>
<circle class="st1" cx="10" cy="90" r="1"/>
<path class="st0" d="M5.8,105.2c0-2.3,1.9-4.2,4.2-4.2s4.2,1.9,4.2,4.2v1.7c0,2.3-1.9,4.2-4.2,4.2s-4.2-1.9-4.2-4.2V105.2z"/>
<path class="st0" d="M2,119c-0.6,0-1-0.4-1-1c0-0.4,0.2-0.7,0.5-0.9l5.4-3.3c0.9-0.5,2-0.9,3.1-0.9s2.2,0.3,3.1,0.9l5.4,3.3
	c0.3,0.2,0.5,0.5,0.5,0.9c0,0.6-0.4,1-1,1"/>
<path class="st0" d="M17,123v13c0,0.6-0.4,1-1,1s-1-0.4-1-1v-15H1v15c0,1.7,1.3,3,3,3h12c1.7,0,3-1.3,3-3v-13H17z M3,123h4v4H3V123z
	 M13,136H3v-4h10V136z M13,130H3v-1h10V130z M13,127H9v-1h4V127z M13,124H9v-1h4V124z"/>
<g>
	<path class="st0" d="M2,151v6c0,1.1,0.9,2,2,2h2v-8H2z"/>
	<path class="st0" d="M14,151v8h2c1.1,0,2-0.9,2-2v-6H14z"/>
</g>
<rect x="8" y="151" class="st0" width="4" height="8"/>
<rect x="8" y="145" class="st0" width="4" height="4"/>
<g>
	<path class="st0" d="M3,145c-1.1,0-2,0.9-2,2v2h5v-4H3z"/>
	<path class="st0" d="M17,145h-3v4h5v-2C19,145.9,18.1,145,17,145z"/>
</g>
<path class="st0" d="M14,143c0-1.1-0.9-2-2-2s-2,0.9-2,2"/>
<path class="st0" d="M10,143c0-1.1-0.9-2-2-2s-2,0.9-2,2"/>
<path class="st0" d="M10,161c-5,0-9,4-9,9s4,9,9,9s9-4,9-9S15,161,10,161z M11,174.8v0.2c0,0.6-0.4,1-1,1s-1-0.4-1-1v-0.2
	c-0.6-0.2-1.1-0.6-1.5-1.1c-0.3-0.5-0.2-1.1,0.3-1.4c0.5-0.3,1.1-0.2,1.4,0.3c0.2,0.3,0.5,0.4,0.8,0.4c0.6,0,1-0.4,1-1s-0.4-1-1-1
	c-1.7,0-3-1.3-3-3c0-1.3,0.8-2.4,2-2.8V165c0-0.6,0.4-1,1-1s1,0.4,1,1v0.2c0.6,0.2,1.1,0.6,1.5,1.1c0.3,0.5,0.2,1.1-0.3,1.4
	c-0.5,0.3-1.1,0.2-1.4-0.3c-0.2-0.3-0.5-0.4-0.8-0.4c-0.6,0-1,0.4-1,1s0.4,1,1,1c1.7,0,3,1.3,3,3C13,173.3,12.2,174.4,11,174.8z"/>
</svg>
