<?xml version="1.0" encoding="utf-8"?>
<!-- Generator: Adobe Illustrator 16.0.0, SVG Export Plug-In . SVG Version: 6.00 Build 0)  -->
<!DOCTYPE svg PUBLIC "-//W3C//DTD SVG 1.1//EN" "http://www.w3.org/Graphics/SVG/1.1/DTD/svg11.dtd">
<svg version="1.1" id="Layer_2" xmlns="http://www.w3.org/2000/svg" xmlns:xlink="http://www.w3.org/1999/xlink" x="0px" y="0px"
	 width="24px" height="24px" viewBox="0 0 24 24" style="enable-background:new 0 0 24 24;" xml:space="preserve">
<style type="text/css">
<![CDATA[
	.st0{fill:#BD8431;}
]]>
</style>
<g>
	<circle class="st0" cx="14" cy="9.8" r="7"/>
	<path class="st0" d="M18.5,17.6c-4.3,2.5-9.8,1-12.3-3.3C3.7,10,5.2,4.5,9.5,2c0.5-0.3,0.6-0.9,0.4-1.4C9.6,0.2,9,0,8.5,0.3
		c-5.3,3-7.1,9.8-4,15c1.5,2.7,4,4.4,6.8,5.2v1.3h-1c-1.1,0-2,0.9-2,2h11c0-1.1-0.9-2-2-2h-1v-1.2c1.1-0.2,2.2-0.6,3.2-1.2
		c0.5-0.3,0.6-0.9,0.4-1.4C19.6,17.5,19,17.3,18.5,17.6z"/>
</g>
</svg>
